<?xml version="1.0" encoding="UTF-8"?>
<svg width="1993px" height="1737px" viewBox="0 0 1993 1737" version="1.1" xmlns="http://www.w3.org/2000/svg" xmlns:xlink="http://www.w3.org/1999/xlink">
    <!-- Generator: Sketch 53.2 (72643) - https://sketchapp.com -->
    <title>Path</title>
    <desc>Created with Sketch.</desc>
    <g id="Page-1" stroke="none" stroke-width="1" fill="none" fill-rule="evenodd">
        <g id="heart" transform="translate(100.000000, 100.000000)" fill-rule="nonzero" stroke="#FB7F6E" stroke-width="200">
            <g id="Group" transform="translate(896.966102, 768.423700) scale(-1, 1) rotate(-180.000000) translate(-896.966102, -768.423700) translate(0.966102, 0.423700)">
                <path d="M896,0 C878.666667,0 864,6 852,18 L228,620 C221.333333,625.333333 212.166667,634 200.5,646 C188.833333,658 170.333333,679.833333 145,711.5 C119.666667,743.166667 97,775.666667 77,809 C57,842.333333 39.1666667,882.666667 23.5,930 C7.83333333,977.333333 0,1023.33333 0,1068 C0,1214.66667 42.3333333,1329.33333 127,1412 C211.666667,1494.66667 328.666667,1536 478,1536 C519.333333,1536 561.5,1528.83333 604.5,1514.5 C647.5,1500.16667 687.5,1480.83333 724.5,1456.5 C761.5,1432.16667 793.333333,1409.33333 820,1388 C846.666667,1366.66667 872,1344 896,1320 C920,1344 945.333333,1366.66667 972,1388 C998.666667,1409.33333 1030.5,1432.16667 1067.5,1456.5 C1104.5,1480.83333 1144.5,1500.16667 1187.5,1514.5 C1230.5,1528.83333 1272.66667,1536 1314,1536 C1463.33333,1536 1580.33333,1494.66667 1665,1412 C1749.66667,1329.33333 1792,1214.66667 1792,1068 C1792,920.666667 1715.66667,770.666667 1563,618 L940,18 C928,6 913.333333,0 896,0" id="Path"></path>
            </g>
        </g>
    </g>
</svg>