<?xml version="1.0" encoding="UTF-8"?>
<svg width="1200px" height="186px" viewBox="0 0 1200 186" version="1.1" xmlns="http://www.w3.org/2000/svg" xmlns:xlink="http://www.w3.org/1999/xlink">
    <!-- Generator: Sketch 53.2 (72643) - https://sketchapp.com -->
    <title>Artboard</title>
    <desc>Created with Sketch.</desc>
    <g id="Artboard" stroke="none" stroke-width="1" fill="none" fill-rule="evenodd">
        <g id="logo_a11y_swag" fill="#FA8072" fill-rule="nonzero">
            <path d="M433.4,84 C431.2,62 421,41 404.5,25.6 C387.4,9.7 365.2,0.9 341.8,0.9 C300.3,0.9 264.5,28.3 253.3,67.9 C246.3,60.9 234.8,56.2 224,56.2 C213.2,56.2 201.7,60.9 194.7,67.9 C183.5,28.3 147.7,0.9 106.2,0.9 C82.9,0.9 60.6,9.6 43.5,25.5 C27,41 16.8,62 14.6,84 L0,84 L0,102 L14.6,102 C16.8,124 27,145 43.5,160.4 C60.6,176.3 82.8,185.1 106.2,185.1 C157,185.1 198.3,143.9 198.3,93.1 C198.3,93 198.3,93 198.3,93 L198.3,93 C198.3,83.1 209.8,71.4 224,71.4 C238.2,71.4 249.7,83.1 249.7,93 L249.7,93 C249.7,93 249.7,93 249.7,93.1 C249.7,143.9 291,185.1 341.8,185.1 C365.1,185.1 387.4,176.4 404.5,160.4 C421,145 431.2,123.9 433.4,101.9 L448,101.9 L448,83.9 L433.4,83.9 L433.4,84 Z M341.8,170 C299.3,170 264.8,135.4 264.8,93 C264.8,50.5 299.4,16 341.8,16 C384.3,16 418.8,50.6 418.8,93 C418.8,135.5 384.3,170 341.8,170 Z M106.2,170 C63.7,170 29.2,135.4 29.2,93 C29.2,50.5 63.8,16 106.2,16 C148.7,16 183.2,50.6 183.2,93 C183.2,135.5 148.7,170 106.2,170 Z" id="Shape"></path>
        </g>
        <text id="A11y-swag" font-family="HighwayGothic, Highway Gothic" font-size="172" font-weight="normal" fill="#FA8072">
            <tspan x="510.238" y="144">A11y swag</tspan>
        </text>
    </g>
</svg>